<?xml version="1.0" encoding="UTF-8"?>
<svg version="1.1" xmlns="http://www.w3.org/2000/svg" width="597" height="151">
<path d="M0 0 C6.58470349 8.35308455 6.30977003 17.13906476 6.1015625 27.33203125 C6.09003714 28.74542945 6.08026213 30.15884305 6.07226562 31.57226562 C6.03657106 35.80698313 5.9270411 40.03702274 5.7890625 44.26953125 C5.76728943 45.00790222 5.74551636 45.74627319 5.7230835 46.50701904 C5.65169182 48.69848738 5.558208 50.88784886 5.45703125 53.078125 C5.40184326 54.36388428 5.34665527 55.64964355 5.28979492 56.97436523 C4.76992765 60.39545178 4.23645528 61.87078861 1.7890625 64.26953125 C-2.63324345 65.74363323 -6.95322167 65.49448954 -11.5859375 65.51953125 C-12.53210938 65.54015625 -13.47828125 65.56078125 -14.453125 65.58203125 C-23.24520849 65.63142498 -23.24520849 65.63142498 -27.2109375 62.26953125 C-28.38283071 59.92574483 -28.39576335 58.39038657 -28.4921875 55.77563477 C-28.52892578 54.84449356 -28.56566406 53.91335236 -28.60351562 52.95399475 C-28.63896484 51.94566086 -28.67441406 50.93732697 -28.7109375 49.8984375 C-28.75154297 48.8651683 -28.79214844 47.83189911 -28.83398438 46.76731873 C-28.96397957 43.45570684 -29.08812404 40.14391679 -29.2109375 36.83203125 C-29.37261861 32.4789569 -29.54004226 28.12615871 -29.7109375 23.7734375 C-29.74638672 22.76712784 -29.78183594 21.76081818 -29.81835938 20.72401428 C-29.85509766 19.78972092 -29.89183594 18.85542755 -29.9296875 17.89282227 C-29.95998047 17.07056656 -29.99027344 16.24831085 -30.02148438 15.40113831 C-30.14480802 13.0829196 -30.14480802 13.0829196 -31.2109375 10.26953125 C-33.97545783 8.88727109 -36.2570738 9.17427738 -39.3359375 9.20703125 C-41.29427083 9.22786458 -43.25260417 9.24869792 -45.2109375 9.26953125 C-45.90508161 21.64048701 -46.45609035 34.00554046 -46.81640625 46.390625 C-46.8400506 47.1956502 -46.86369495 48.00067539 -46.8880558 48.83009529 C-47.01181575 53.06218969 -47.13248154 57.29435961 -47.25073242 61.52661133 C-47.34857911 65.00728699 -47.45276944 68.48768888 -47.56225586 71.96801758 C-47.69592658 76.21717991 -47.81935927 80.46652079 -47.93526649 84.71620369 C-47.98077085 86.32346059 -48.02983201 87.93062101 -48.08257103 89.53765678 C-48.15501077 91.769015 -48.21424786 94.00035525 -48.27026367 96.23217773 C-48.32569588 98.13144264 -48.32569588 98.13144264 -48.38224792 100.06907654 C-48.21807077 103.13626608 -47.93959126 104.7679292 -46.2109375 107.26953125 C-43.37706235 108.68646882 -40.93064377 108.43943255 -37.7734375 108.45703125 C-36.04287109 108.47830078 -36.04287109 108.47830078 -34.27734375 108.5 C-31.03813582 108.50878213 -31.03813582 108.50878213 -28.2109375 106.26953125 C-27.75329971 104.30984766 -27.75329971 104.30984766 -27.8046875 102.05859375 C-27.78277344 101.22585937 -27.76085938 100.393125 -27.73828125 99.53515625 C-27.72925781 98.66375 -27.72023437 97.79234375 -27.7109375 96.89453125 C-27.61842212 88.03948765 -27.61842212 88.03948765 -25.8671875 84.73046875 C-21.87669017 81.21054894 -16.34969141 81.97298259 -11.3359375 81.89453125 C-9.98822266 81.83845703 -9.98822266 81.83845703 -8.61328125 81.78125 C-4.19903668 81.72256728 -1.87145955 81.83528375 1.890625 84.30859375 C4.2289003 87.95553342 4.47702743 90.82066114 4.2890625 95.01953125 C4.26138794 96.08578735 4.26138794 96.08578735 4.2331543 97.17358398 C3.88156276 105.65924084 1.76524196 113.04434431 -4.2109375 119.26953125 C-16.30947562 129.20761613 -33.67023886 129.3536159 -48.49609375 127.9609375 C-58.92407215 126.44047097 -68.13697867 123.42173785 -75.2109375 115.26953125 C-78.9424274 110.13197269 -79.48573039 104.73208126 -79.77075195 98.53125 C-79.80953366 97.78623734 -79.84831537 97.04122467 -79.88827229 96.27363586 C-80.29576441 88.17176596 -80.57283813 80.06524468 -80.81640625 71.95703125 C-80.85187278 70.78920105 -80.85187278 70.78920105 -80.8880558 69.59777832 C-81.01206098 65.4960989 -81.13270453 61.39433601 -81.25073242 57.29248047 C-81.37248644 53.08863898 -81.50726709 48.88531458 -81.64470959 44.68196106 C-81.74912982 41.41176471 -81.84351975 38.14133221 -81.93526649 34.87075806 C-81.98051897 33.32065311 -82.02953353 31.77065278 -82.08257103 30.22079468 C-82.79105471 9.27237651 -82.79105471 9.27237651 -76.2109375 1.26953125 C-58.97530926 -17.06917719 -18.44488178 -15.50154958 0 0 Z " fill="#FF9900" transform="translate(89.2109375,17.73046875)"/>
<path d="M0 0 C1.89878906 -0.02126953 1.89878906 -0.02126953 3.8359375 -0.04296875 C7.75425857 0.19536212 10.94945897 0.81487239 14.625 2.1875 C16.654668 5.232002 16.87356301 5.79026328 16.85205078 9.19995117 C16.85189972 10.00055466 16.85174866 10.80115814 16.85159302 11.62602234 C16.84127045 12.48548965 16.83094788 13.34495697 16.8203125 14.23046875 C16.8174826 15.1140657 16.81465271 15.99766266 16.81173706 16.90803528 C16.80054097 19.73049454 16.77543751 22.55263662 16.75 25.375 C16.73996946 27.28840688 16.73084374 29.20181873 16.72265625 31.11523438 C16.70060351 35.80611182 16.66607762 40.49675213 16.625 45.1875 C17.57334717 44.54458008 18.52169434 43.90166016 19.4987793 43.23925781 C26.18000906 38.85432576 34.13064062 38.07175125 41.9140625 39.65234375 C48.26466461 41.49641893 54.27399818 44.59984404 57.9765625 50.25 C60.25595109 54.71038631 61.75162583 58.72057921 61.7512207 63.77026367 C61.75281441 65.16865227 61.75281441 65.16865227 61.75444031 66.59529114 C61.74910782 67.60927475 61.74377533 68.62325836 61.73828125 69.66796875 C61.73336418 71.25982246 61.73336418 71.25982246 61.72834778 72.88383484 C61.66410895 84.27861816 61.35287634 95.66323182 60.93530273 107.05004883 C60.81000266 110.57015897 60.70497774 114.09057145 60.59960938 117.61132812 C60.51946666 119.86202357 60.43813402 122.11267704 60.35546875 124.36328125 C60.3130732 125.93327629 60.3130732 125.93327629 60.26982117 127.5349884 C60.23000626 128.49837631 60.19019135 129.46176422 60.14916992 130.4543457 C60.12030197 131.29906937 60.09143402 132.14379303 60.06169128 133.01411438 C59.53352263 135.64277726 58.70377742 136.54434836 56.625 138.1875 C53.1017655 139.54500461 49.42324037 139.35506542 45.6875 139.375 C44.48222656 139.38917969 43.27695312 139.40335938 42.03515625 139.41796875 C38.71043051 139.19327365 36.54450586 138.75954162 33.625 137.1875 C31.38062447 133.82093671 31.33998807 132.54382086 31.23022461 128.58959961 C31.19356186 127.44087875 31.15689911 126.2921579 31.11912537 125.10862732 C31.08883743 123.86492874 31.0585495 122.62123016 31.02734375 121.33984375 C30.96744689 119.38110185 30.90754674 117.42236005 30.84745884 115.463624 C30.76547972 112.71397652 30.69219903 109.96412217 30.61883545 107.2142334 C30.48988868 102.43216624 30.34924915 97.65043825 30.20570374 92.86878967 C30.13022922 90.32564754 30.05876852 87.78238212 29.9919281 85.23899841 C30.60639392 73.40259533 30.60639392 73.40259533 26.625 63.1875 C23.43146297 62.84037641 21.27327523 62.90716477 18.3125 64.1875 C14.23744616 69.01719344 15.43380421 78.41525936 15.34375 84.50390625 C15.32534058 85.47802963 15.30693115 86.45215302 15.28796387 87.45579529 C15.22963962 90.55380647 15.17672006 93.65187201 15.125 96.75 C14.73236057 119.98728228 14.73236057 119.98728228 14.28125 128.96484375 C14.22775391 130.11073975 14.17425781 131.25663574 14.11914062 132.43725586 C13.57965977 135.43985066 13.04876977 136.4054162 10.625 138.1875 C7.1017655 139.54500461 3.42324037 139.35506542 -0.3125 139.375 C-1.51777344 139.38917969 -2.72304687 139.40335938 -3.96484375 139.41796875 C-7.448321 139.18254474 -10.80317001 138.75932999 -13.375 136.1875 C-14.31341304 130.97127448 -14.56884941 125.85359973 -14.67211914 120.56298828 C-14.69177231 119.72739883 -14.71142548 118.89180939 -14.73167419 118.03089905 C-14.7953814 115.27328028 -14.85294022 112.51557303 -14.91015625 109.7578125 C-14.95330324 107.80662459 -14.99671963 105.85544262 -15.04039001 103.90426636 C-15.13128504 99.80048903 -15.21918724 95.69666153 -15.30493164 91.59277344 C-15.39158955 87.45238849 -15.48163822 83.31210427 -15.57543945 79.171875 C-15.86452262 66.41217722 -16.1171658 53.65241896 -16.32816315 40.89118958 C-16.37388239 38.25201464 -16.42566015 35.61302598 -16.47918701 32.97399902 C-16.55776408 29.03065073 -16.61607209 25.08755855 -16.65682793 21.14364243 C-16.67445555 19.72672193 -16.69887667 18.30986711 -16.73060799 16.89319229 C-16.77221556 14.97582464 -16.78617709 13.05791564 -16.79858398 11.14013672 C-16.8135643 10.07850311 -16.82854462 9.01686951 -16.84397888 7.92306519 C-16.25347942 4.47866753 -15.07979221 3.32683498 -12.375 1.1875 C-8.34380501 -0.11266357 -4.21021182 0.02134996 0 0 Z " fill="#FF9900" transform="translate(223.375,5.8125)"/>
<path d="M0 0 C4.59890282 4.72639716 6.96287835 8.69617291 7.03759766 15.34619141 C7.00217841 16.6814803 6.96060359 18.01661498 6.9140625 19.3515625 C6.89318573 20.07491287 6.87230896 20.79826324 6.85079956 21.54353333 C6.7811226 23.9042298 6.70329906 26.26457502 6.625 28.625 C6.57452925 30.2565813 6.52440143 31.88817324 6.47460938 33.51977539 C6.32502266 38.34681669 6.16349857 43.17341313 6 48 C5.95535767 49.34326019 5.91075847 50.68652182 5.86621094 52.02978516 C5.61914127 59.35530346 5.33055449 66.67780147 5 74 C4.96938477 74.75925781 4.93876953 75.51851563 4.90722656 76.30078125 C4.82846699 78.1803918 4.72798459 80.059061 4.625 81.9375 C4.55152344 83.34322266 4.55152344 83.34322266 4.4765625 84.77734375 C3.89924793 87.46990105 3.21377507 88.38768437 1 90 C-2.38888247 91.28288111 -5.84598831 91.16673982 -9.4375 91.1875 C-11.10619141 91.20876953 -11.10619141 91.20876953 -12.80859375 91.23046875 C-16.01509345 90.99891002 -18.18440447 90.5381021 -21 89 C-21.33 88.01 -21.66 87.02 -22 86 C-23.19496094 86.52400391 -23.19496094 86.52400391 -24.4140625 87.05859375 C-25.47367188 87.51363281 -26.53328125 87.96867187 -27.625 88.4375 C-28.66914063 88.88996094 -29.71328125 89.34242188 -30.7890625 89.80859375 C-39.45325274 93.02340886 -48.86319455 93.02805552 -57.60546875 90.109375 C-64.0319057 87.13203716 -68.40328261 82.56953952 -71 76 C-71.42903969 73.15343936 -71.46528712 70.37470367 -71.4375 67.5 C-71.45748047 66.76652344 -71.47746094 66.03304687 -71.49804688 65.27734375 C-71.49338196 60.06196592 -70.38337895 57.15372935 -67 53 C-60.48215719 46.77842277 -53.16743092 43.90133627 -44.6875 41.3125 C-43.65725708 40.99055664 -43.65725708 40.99055664 -42.60620117 40.66210938 C-36.79214567 38.96512896 -31.03161856 38.39463117 -25 38 C-25.2189715 33.53956832 -25.48038501 29.08263449 -25.75 24.625 C-25.811875 23.35398438 -25.87375 22.08296875 -25.9375 20.7734375 C-26.01484375 19.56171875 -26.0921875 18.35 -26.171875 17.1015625 C-26.2661377 15.42054443 -26.2661377 15.42054443 -26.36230469 13.70556641 C-26.71990958 10.90365308 -26.71990958 10.90365308 -28.84863281 9.59521484 C-31.7857497 8.78260806 -34.06402282 9.33273246 -37 10 C-39.09242008 16.28566352 -39.36733468 22.09353997 -39.47851562 28.6796875 C-39.50494141 29.45054688 -39.53136719 30.22140625 -39.55859375 31.015625 C-39.57204834 31.70946289 -39.58550293 32.40330078 -39.59936523 33.11816406 C-40.12891127 35.60551377 -40.99140621 36.46828709 -43 38 C-47.02817901 39.4045191 -51.21802315 39.18389669 -55.4375 39.1875 C-56.18837891 39.19974609 -56.93925781 39.21199219 -57.71289062 39.22460938 C-65.84607115 39.24606895 -65.84607115 39.24606895 -69 37 C-71.16853723 31.09419649 -71.39490189 25.24772294 -71.4375 19 C-71.47037109 18.14921875 -71.50324219 17.2984375 -71.53710938 16.421875 C-71.59076981 10.06067445 -70.12053518 5.88009759 -66 1 C-49.45881078 -13.36768825 -17.00325484 -12.81695601 0 0 Z M-41.625 60.875 C-43.53052874 63.81990806 -43.57326746 65.56039522 -43 69 C-41.69138543 71.55985074 -41.69138543 71.55985074 -39 73 C-32.82168581 74.04339651 -29.77016091 72.88508046 -24 70 C-24 65.05 -24 60.1 -24 55 C-30.72126364 55 -36.14472893 56.96052066 -41.625 60.875 Z " fill="#FF9900" transform="translate(182,54)"/>
<path d="M0 0 C4.94196735 4.49832518 7.77554175 8.89389397 8.265625 15.67578125 C8.27454299 17.22133721 8.26796346 18.7670227 8.25 20.3125 C8.24323242 21.1797168 8.23646484 22.04693359 8.22949219 22.94042969 C8.09556962 32.31189475 7.75598399 41.68198819 7.36120605 51.04574585 C7.28752977 52.8373694 7.21950456 54.62923496 7.15734863 56.42129517 C6.41705781 77.13668274 6.41705781 77.13668274 0.10546875 84.0859375 C-13.90889997 93.50496332 -29.79719694 94.76723713 -46.1796875 91.6875 C-54.74438266 89.59970727 -62.12301706 85.60317271 -66.875 78 C-72.44966422 63.13422876 -70.13071044 43.83376146 -70.28610229 28.0904541 C-70.30360944 26.57969845 -70.32789133 25.06900514 -70.35916138 23.55847168 C-70.40121914 21.4201757 -70.41671047 19.2831901 -70.42578125 17.14453125 C-70.44765503 15.29371948 -70.44765503 15.29371948 -70.4699707 13.40551758 C-69.62100475 7.25371185 -65.6997061 3.1659506 -61.03515625 -0.6171875 C-44.6255101 -11.76692788 -16.12448821 -11.21179367 0 0 Z M-37 11 C-38.48009762 13.96019524 -38.34941973 17.03859137 -38.515625 20.29296875 C-38.55633118 21.04176804 -38.59703735 21.79056732 -38.63897705 22.5620575 C-39.09224454 31.23054856 -39.41861613 39.90323347 -39.66748047 48.57983398 C-39.72320255 50.42509221 -39.78553999 52.27016083 -39.85400391 54.11499023 C-39.95401054 56.82251585 -40.03393248 59.5299736 -40.109375 62.23828125 C-40.14359558 63.06113113 -40.17781616 63.88398102 -40.21307373 64.73176575 C-40.28657943 68.03863068 -40.24756945 70.5119823 -38.73535156 73.49291992 C-35.90732942 75.94893859 -32.60581954 76.08434666 -29 76 C-25.68369042 75.0358139 -25.68369042 75.0358139 -23 73 C-22.89908627 71.11024753 -22.86917611 69.21666268 -22.8671875 67.32421875 C-22.86517334 66.11620605 -22.86315918 64.90819336 -22.86108398 63.66357422 C-22.86567627 62.35146973 -22.87026855 61.03936523 -22.875 59.6875 C-22.87621857 59.02349182 -22.87743713 58.35948364 -22.87869263 57.675354 C-22.9003727 47.56940945 -23.09212794 37.47546577 -23.4375 27.375 C-23.47665527 26.19123779 -23.51581055 25.00747559 -23.55615234 23.7878418 C-23.59820801 22.68996338 -23.64026367 21.59208496 -23.68359375 20.4609375 C-23.72025146 19.49978027 -23.75690918 18.53862305 -23.79467773 17.54833984 C-23.98279136 15.21358362 -24.20288681 13.20219932 -25 11 C-29.48572546 8.63909186 -32.62793476 8.37676086 -37 11 Z " fill="#FF9900" transform="translate(470,53)"/>
<path d="M0 0 C4.94196735 4.49832518 7.77554175 8.89389397 8.265625 15.67578125 C8.27454299 17.22133721 8.26796346 18.7670227 8.25 20.3125 C8.24323242 21.1797168 8.23646484 22.04693359 8.22949219 22.94042969 C8.09556962 32.31189475 7.75598399 41.68198819 7.36120605 51.04574585 C7.28752977 52.8373694 7.21950456 54.62923496 7.15734863 56.42129517 C6.41705781 77.13668274 6.41705781 77.13668274 0.10546875 84.0859375 C-13.90889997 93.50496332 -29.79719694 94.76723713 -46.1796875 91.6875 C-54.74438266 89.59970727 -62.12301706 85.60317271 -66.875 78 C-72.44966422 63.13422876 -70.13071044 43.83376146 -70.28610229 28.0904541 C-70.30360944 26.57969845 -70.32789133 25.06900514 -70.35916138 23.55847168 C-70.40121914 21.4201757 -70.41671047 19.2831901 -70.42578125 17.14453125 C-70.44765503 15.29371948 -70.44765503 15.29371948 -70.4699707 13.40551758 C-69.62100475 7.25371185 -65.6997061 3.1659506 -61.03515625 -0.6171875 C-44.6255101 -11.76692788 -16.12448821 -11.21179367 0 0 Z M-37 11 C-38.48009762 13.96019524 -38.34941973 17.03859137 -38.515625 20.29296875 C-38.55633118 21.04176804 -38.59703735 21.79056732 -38.63897705 22.5620575 C-39.09224454 31.23054856 -39.41861613 39.90323347 -39.66748047 48.57983398 C-39.72320255 50.42509221 -39.78553999 52.27016083 -39.85400391 54.11499023 C-39.95401054 56.82251585 -40.03393248 59.5299736 -40.109375 62.23828125 C-40.14359558 63.06113113 -40.17781616 63.88398102 -40.21307373 64.73176575 C-40.28657943 68.03863068 -40.24756945 70.5119823 -38.73535156 73.49291992 C-35.90732942 75.94893859 -32.60581954 76.08434666 -29 76 C-25.68369042 75.0358139 -25.68369042 75.0358139 -23 73 C-22.89908627 71.11024753 -22.86917611 69.21666268 -22.8671875 67.32421875 C-22.86517334 66.11620605 -22.86315918 64.90819336 -22.86108398 63.66357422 C-22.86567627 62.35146973 -22.87026855 61.03936523 -22.875 59.6875 C-22.87621857 59.02349182 -22.87743713 58.35948364 -22.87869263 57.675354 C-22.9003727 47.56940945 -23.09212794 37.47546577 -23.4375 27.375 C-23.47665527 26.19123779 -23.51581055 25.00747559 -23.55615234 23.7878418 C-23.59820801 22.68996338 -23.64026367 21.59208496 -23.68359375 20.4609375 C-23.72025146 19.49978027 -23.75690918 18.53862305 -23.79467773 17.54833984 C-23.98279136 15.21358362 -24.20288681 13.20219932 -25 11 C-29.48572546 8.63909186 -32.62793476 8.37676086 -37 11 Z " fill="#FF9900" transform="translate(374,53)"/>
<path d="M0 0 C1.25683594 -0.01417969 2.51367188 -0.02835938 3.80859375 -0.04296875 C7.73492847 0.19808614 10.89927221 0.74853692 14.5625 2.1875 C16.62666108 5.22886833 16.75916672 7.56216585 16.5390625 11.171875 C16.4875 12.10644531 16.4359375 13.04101562 16.3828125 14.00390625 C16.31835938 14.97199219 16.25390625 15.94007812 16.1875 16.9375 C16.10242188 18.41283203 16.10242188 18.41283203 16.015625 19.91796875 C15.87442448 22.341911 15.72304205 24.76477459 15.5625 27.1875 C16.84125 27.31125 18.12 27.435 19.4375 27.5625 C23.3125 27.9375 23.3125 27.9375 25.5625 30.1875 C26.78723265 35.67904319 27.23829646 41.09074484 24.5625 46.1875 C21.61488813 48.42361935 19.15797448 48.24692933 15.5625 48.1875 C15.52491577 49.99831055 15.52491577 49.99831055 15.48657227 51.84570312 C15.22324052 64.41879029 14.93423322 76.99111487 14.62567139 89.56317139 C14.56938201 91.90160061 14.51645937 94.24006664 14.46533203 96.57861328 C14.38757239 99.96972422 14.29208374 103.35962995 14.1875 106.75 C14.16888916 107.69746094 14.15027832 108.64492187 14.13110352 109.62109375 C14.08554321 110.89339844 14.08554321 110.89339844 14.0390625 112.19140625 C14.0093335 113.25597046 14.0093335 113.25597046 13.97900391 114.34204102 C13.43881186 116.73554142 12.43829129 117.65289344 10.5625 119.1875 C7.0392655 120.54500461 3.36074037 120.35506542 -0.375 120.375 C-2.18291016 120.39626953 -2.18291016 120.39626953 -4.02734375 120.41796875 C-7.35206949 120.19327365 -9.51799414 119.75954162 -12.4375 118.1875 C-14.78649016 114.66401476 -14.73731875 113.05387974 -14.8515625 108.87109375 C-14.89031494 107.56454834 -14.92906738 106.25800293 -14.96899414 104.91186523 C-15.00066238 103.48292114 -15.0318186 102.05396562 -15.0625 100.625 C-15.10052201 99.16153168 -15.13885663 97.69807145 -15.17749023 96.23461914 C-15.5725788 80.22133824 -15.5353558 64.20423704 -15.4375 48.1875 C-16.06398438 48.15011719 -16.69046875 48.11273438 -17.3359375 48.07421875 C-18.15320313 48.00847656 -18.97046875 47.94273438 -19.8125 47.875 C-21.03066406 47.78798828 -21.03066406 47.78798828 -22.2734375 47.69921875 C-24.4375 47.1875 -24.4375 47.1875 -26.4375 44.1875 C-26.80859375 40.9375 -26.80859375 40.9375 -26.875 37.1875 C-26.91496094 35.95 -26.95492188 34.7125 -26.99609375 33.4375 C-26.4375 30.1875 -26.4375 30.1875 -24.22265625 28.25 C-21.36266352 27.15895088 -19.45606472 27.10131866 -16.4375 27.1875 C-16.45321045 26.50647217 -16.4689209 25.82544434 -16.48510742 25.1237793 C-16.54743222 22.04093719 -16.58648258 18.95822756 -16.625 15.875 C-16.65013672 14.80314453 -16.67527344 13.73128906 -16.70117188 12.62695312 C-16.71567383 11.08491211 -16.71567383 11.08491211 -16.73046875 9.51171875 C-16.7461792 8.56385498 -16.76188965 7.61599121 -16.77807617 6.6394043 C-16.4375 4.1875 -16.4375 4.1875 -15.08935547 2.39697266 C-10.93829274 -0.64239547 -4.92163749 0.0251875 0 0 Z " fill="#FF9900" transform="translate(515.4375,24.8125)"/>
<path d="M0 0 C0.72509766 -0.01224609 1.45019531 -0.02449219 2.19726562 -0.03710938 C6.9582994 -0.04994235 11.07184242 0.42351183 15.5625 2.1875 C17.61036952 4.32304227 18.49331431 5.60204095 18.84301758 8.5612793 C18.79814209 9.45242432 18.7532666 10.34356934 18.70703125 11.26171875 C18.64032227 12.82200806 18.64032227 12.82200806 18.57226562 14.41381836 C18.50716797 15.5560083 18.44207031 16.69819824 18.375 17.875 C18.31892578 19.07584229 18.26285156 20.27668457 18.20507812 21.51391602 C18.07677355 24.2162468 17.94236699 26.91761135 17.79931641 29.61914062 C17.53484801 34.64610747 17.30487197 39.67451224 17.07421875 44.703125 C16.17882756 63.97517517 16.17882756 63.97517517 15.67871094 73.01483154 C15.56923503 75.06158261 15.47550648 77.10915855 15.3828125 79.15673828 C15.31835938 80.31286621 15.25390625 81.46899414 15.1875 82.66015625 C15.13851562 83.6437915 15.08953125 84.62742676 15.0390625 85.64086914 C14.49101549 88.56949535 13.5682207 90.01289293 11.5625 92.1875 C7.98913338 93.71894284 3.95339658 93.35602876 0.125 93.375 C-1.17308594 93.38917969 -2.47117187 93.40335937 -3.80859375 93.41796875 C-8.35522337 93.12921617 -11.20032818 92.42467182 -14.4375 89.1875 C-15.67380411 82.14678203 -15.83835788 74.9732864 -16.19140625 67.84375 C-16.25657944 66.56125366 -16.32175262 65.27875732 -16.38890076 63.95739746 C-16.52616345 61.24773615 -16.66118205 58.53797441 -16.79467773 55.828125 C-16.9301619 53.08185944 -17.06882019 50.33578663 -17.21069336 47.58984375 C-17.66500273 38.79085596 -18.07684877 29.99088615 -18.4375 21.1875 C-18.47897156 20.25663574 -18.52044312 19.32577148 -18.56317139 18.36669922 C-18.6578187 16.08807494 -18.72517376 13.81117855 -18.77734375 11.53125 C-18.81077881 10.36787109 -18.84421387 9.20449219 -18.87866211 8.00585938 C-18.32661546 4.47911529 -17.23466452 3.33478933 -14.4375 1.1875 C-9.72135118 -0.09134093 -4.86059517 0.00429761 0 0 Z " fill="#FF9900" transform="translate(572.4375,5.8125)"/>
<path d="M0 0 C1.89878906 -0.02126953 1.89878906 -0.02126953 3.8359375 -0.04296875 C7.75425857 0.19536212 10.94945897 0.81487239 14.625 2.1875 C17.49787818 6.49681727 16.84778716 10.1330164 16.625 15.1875 C16.58375 16.16460937 16.5425 17.14171875 16.5 18.1484375 C15.9350571 26.92859168 15.9350571 26.92859168 12.625 30.1875 C8.44945917 31.59674503 3.99630088 31.37096743 -0.375 31.375 C-1.07367187 31.38724609 -1.77234375 31.39949219 -2.4921875 31.41210938 C-6.56896985 31.42364744 -9.7460824 31.08867926 -13.375 29.1875 C-17.5747815 24.9877185 -16.54471739 17.04482948 -16.6875 11.375 C-16.72488281 10.08980469 -16.76226563 8.80460937 -16.80078125 7.48046875 C-16.375 4.1875 -16.375 4.1875 -14.66796875 2.30078125 C-9.8935163 -0.01730895 -5.24835609 0.02661438 0 0 Z " fill="#FF9900" transform="translate(572.375,113.8125)"/>
</svg>
