<?xml version="1.0" encoding="UTF-8"?>
<svg version="1.1" xmlns="http://www.w3.org/2000/svg" width="156" height="151">
<path d="M0 0 C6.58470349 8.35308455 6.30977003 17.13906476 6.1015625 27.33203125 C6.09003714 28.74542945 6.08026213 30.15884305 6.07226562 31.57226562 C6.03657106 35.80698313 5.9270411 40.03702274 5.7890625 44.26953125 C5.76728943 45.00790222 5.74551636 45.74627319 5.7230835 46.50701904 C5.65169182 48.69848738 5.558208 50.88784886 5.45703125 53.078125 C5.40184326 54.36388428 5.34665527 55.64964355 5.28979492 56.97436523 C4.76992765 60.39545178 4.23645528 61.87078861 1.7890625 64.26953125 C-2.63324345 65.74363323 -6.95322167 65.49448954 -11.5859375 65.51953125 C-12.53210938 65.54015625 -13.47828125 65.56078125 -14.453125 65.58203125 C-23.24520849 65.63142498 -23.24520849 65.63142498 -27.2109375 62.26953125 C-28.38283071 59.92574483 -28.39576335 58.39038657 -28.4921875 55.77563477 C-28.52892578 54.84449356 -28.56566406 53.91335236 -28.60351562 52.95399475 C-28.63896484 51.94566086 -28.67441406 50.93732697 -28.7109375 49.8984375 C-28.75154297 48.8651683 -28.79214844 47.83189911 -28.83398438 46.76731873 C-28.96397957 43.45570684 -29.08812404 40.14391679 -29.2109375 36.83203125 C-29.37261861 32.4789569 -29.54004226 28.12615871 -29.7109375 23.7734375 C-29.74638672 22.76712784 -29.78183594 21.76081818 -29.81835938 20.72401428 C-29.85509766 19.78972092 -29.89183594 18.85542755 -29.9296875 17.89282227 C-29.95998047 17.07056656 -29.99027344 16.24831085 -30.02148438 15.40113831 C-30.14480802 13.0829196 -30.14480802 13.0829196 -31.2109375 10.26953125 C-33.97545783 8.88727109 -36.2570738 9.17427738 -39.3359375 9.20703125 C-41.29427083 9.22786458 -43.25260417 9.24869792 -45.2109375 9.26953125 C-45.90508161 21.64048701 -46.45609035 34.00554046 -46.81640625 46.390625 C-46.8400506 47.1956502 -46.86369495 48.00067539 -46.8880558 48.83009529 C-47.01181575 53.06218969 -47.13248154 57.29435961 -47.25073242 61.52661133 C-47.34857911 65.00728699 -47.45276944 68.48768888 -47.56225586 71.96801758 C-47.69592658 76.21717991 -47.81935927 80.46652079 -47.93526649 84.71620369 C-47.98077085 86.32346059 -48.02983201 87.93062101 -48.08257103 89.53765678 C-48.15501077 91.769015 -48.21424786 94.00035525 -48.27026367 96.23217773 C-48.32569588 98.13144264 -48.32569588 98.13144264 -48.38224792 100.06907654 C-48.21807077 103.13626608 -47.93959126 104.7679292 -46.2109375 107.26953125 C-43.37706235 108.68646882 -40.93064377 108.43943255 -37.7734375 108.45703125 C-36.04287109 108.47830078 -36.04287109 108.47830078 -34.27734375 108.5 C-31.03813582 108.50878213 -31.03813582 108.50878213 -28.2109375 106.26953125 C-27.75329971 104.30984766 -27.75329971 104.30984766 -27.8046875 102.05859375 C-27.78277344 101.22585937 -27.76085938 100.393125 -27.73828125 99.53515625 C-27.72925781 98.66375 -27.72023437 97.79234375 -27.7109375 96.89453125 C-27.61842212 88.03948765 -27.61842212 88.03948765 -25.8671875 84.73046875 C-21.87669017 81.21054894 -16.34969141 81.97298259 -11.3359375 81.89453125 C-9.98822266 81.83845703 -9.98822266 81.83845703 -8.61328125 81.78125 C-4.19903668 81.72256728 -1.87145955 81.83528375 1.890625 84.30859375 C4.2289003 87.95553342 4.47702743 90.82066114 4.2890625 95.01953125 C4.26138794 96.08578735 4.26138794 96.08578735 4.2331543 97.17358398 C3.88156276 105.65924084 1.76524196 113.04434431 -4.2109375 119.26953125 C-16.30947562 129.20761613 -33.67023886 129.3536159 -48.49609375 127.9609375 C-58.92407215 126.44047097 -68.13697867 123.42173785 -75.2109375 115.26953125 C-78.9424274 110.13197269 -79.48573039 104.73208126 -79.77075195 98.53125 C-79.80953366 97.78623734 -79.84831537 97.04122467 -79.88827229 96.27363586 C-80.29576441 88.17176596 -80.57283813 80.06524468 -80.81640625 71.95703125 C-80.85187278 70.78920105 -80.85187278 70.78920105 -80.8880558 69.59777832 C-81.01206098 65.4960989 -81.13270453 61.39433601 -81.25073242 57.29248047 C-81.37248644 53.08863898 -81.50726709 48.88531458 -81.64470959 44.68196106 C-81.74912982 41.41176471 -81.84351975 38.14133221 -81.93526649 34.87075806 C-81.98051897 33.32065311 -82.02953353 31.77065278 -82.08257103 30.22079468 C-82.79105471 9.27237651 -82.79105471 9.27237651 -76.2109375 1.26953125 C-58.97530926 -17.06917719 -18.44488178 -15.50154958 0 0 Z " fill="#FF9900" transform="translate(88.2109375,16.73046875)"/>
<path d="M0 0 C0.72509766 -0.01224609 1.45019531 -0.02449219 2.19726562 -0.03710938 C6.9582994 -0.04994235 11.07184242 0.42351183 15.5625 2.1875 C17.61036952 4.32304227 18.49331431 5.60204095 18.84301758 8.5612793 C18.79814209 9.45242432 18.7532666 10.34356934 18.70703125 11.26171875 C18.64032227 12.82200806 18.64032227 12.82200806 18.57226562 14.41381836 C18.50716797 15.5560083 18.44207031 16.69819824 18.375 17.875 C18.31892578 19.07584229 18.26285156 20.27668457 18.20507812 21.51391602 C18.07677355 24.2162468 17.94236699 26.91761135 17.79931641 29.61914062 C17.53484801 34.64610747 17.30487197 39.67451224 17.07421875 44.703125 C16.17882756 63.97517517 16.17882756 63.97517517 15.67871094 73.01483154 C15.56923503 75.06158261 15.47550648 77.10915855 15.3828125 79.15673828 C15.31835938 80.31286621 15.25390625 81.46899414 15.1875 82.66015625 C15.13851562 83.6437915 15.08953125 84.62742676 15.0390625 85.64086914 C14.49101549 88.56949535 13.5682207 90.01289293 11.5625 92.1875 C7.98913338 93.71894284 3.95339658 93.35602876 0.125 93.375 C-1.17308594 93.38917969 -2.47117188 93.40335937 -3.80859375 93.41796875 C-8.35522337 93.12921617 -11.20032818 92.42467182 -14.4375 89.1875 C-15.67380411 82.14678203 -15.83835788 74.9732864 -16.19140625 67.84375 C-16.25657944 66.56125366 -16.32175262 65.27875732 -16.38890076 63.95739746 C-16.52616345 61.24773615 -16.66118205 58.53797441 -16.79467773 55.828125 C-16.9301619 53.08185944 -17.06882019 50.33578663 -17.21069336 47.58984375 C-17.66500273 38.79085596 -18.07684877 29.99088615 -18.4375 21.1875 C-18.47897156 20.25663574 -18.52044312 19.32577148 -18.56317139 18.36669922 C-18.6578187 16.08807494 -18.72517376 13.81117855 -18.77734375 11.53125 C-18.81077881 10.36787109 -18.84421387 9.20449219 -18.87866211 8.00585938 C-18.32661546 4.47911529 -17.23466452 3.33478933 -14.4375 1.1875 C-9.72135118 -0.09134093 -4.86059517 0.00429761 0 0 Z " fill="#FF9900" transform="translate(131.4375,4.8125)"/>
<path d="M0 0 C1.89878906 -0.02126953 1.89878906 -0.02126953 3.8359375 -0.04296875 C7.75425857 0.19536212 10.94945897 0.81487239 14.625 2.1875 C17.49787818 6.49681727 16.84778716 10.1330164 16.625 15.1875 C16.58375 16.16460937 16.5425 17.14171875 16.5 18.1484375 C15.9350571 26.92859168 15.9350571 26.92859168 12.625 30.1875 C8.44945917 31.59674503 3.99630088 31.37096743 -0.375 31.375 C-1.07367188 31.38724609 -1.77234375 31.39949219 -2.4921875 31.41210938 C-6.56896985 31.42364744 -9.7460824 31.08867926 -13.375 29.1875 C-17.5747815 24.9877185 -16.54471739 17.04482948 -16.6875 11.375 C-16.72488281 10.08980469 -16.76226562 8.80460937 -16.80078125 7.48046875 C-16.375 4.1875 -16.375 4.1875 -14.66796875 2.30078125 C-9.8935163 -0.01730895 -5.24835609 0.02661438 0 0 Z " fill="#FF9900" transform="translate(131.375,112.8125)"/>
</svg>
